<svg xmlns="http://www.w3.org/2000/svg" viewBox="0 0 848.68 185.36"><path d="M95.36,3.48V67.92a15,15,0,0,1-1.75,7L87.27,87c0,.05,0,.09-.07.14a25.82,25.82,0,0,0-1.76,15.8,1.78,1.78,0,0,0,.17.49L89.43,111a1.8,1.8,0,0,1-1.54,2.64H81.32a11,11,0,0,1-4.86-1,11.89,11.89,0,0,1-3.89-3.34L25.15,47.21A1.75,1.75,0,0,0,22,48.35h0c.07,1.87.11,3.62.11,5.26v58.21a1.79,1.79,0,0,1-1.79,1.79H1.8A1.79,1.79,0,0,1,0,111.82V3.47a1.8,1.8,0,0,1,1.8-1.8H14.18a21,21,0,0,1,2.75.16,6.76,6.76,0,0,1,2,.57,7.14,7.14,0,0,1,1.71,1.19,21.25,21.25,0,0,1,1.85,2.08L70.31,68.18a1.74,1.74,0,0,0,3.1-1.24c0-.1,0-.2,0-.31-.1-2-.15-3.93-.15-5.72V3.48A1.78,1.78,0,0,1,75,1.67H93.61A1.78,1.78,0,0,1,95.36,3.48Z" style="fill:#444"/><path d="M285.61,6.4,244.16,109.81a3.86,3.86,0,0,1-3.58,2.42H222.5A3.88,3.88,0,0,1,219,110L170.19,8a4.47,4.47,0,0,1,4.05-6.36h12.65a9,9,0,0,1,5.6,1.62,10.24,10.24,0,0,1,3.23,4.14s19.54,40.15,29.66,63.23a6.46,6.46,0,0,0,12-.51c8-23.52,22.18-64.1,22.18-64.1a9.48,9.48,0,0,1,3.11-4A8.69,8.69,0,0,1,268.27.29h13.21A4.45,4.45,0,0,1,285.61,6.4Z" style="fill:#474747"/><path d="M307.08,112.23H288.54a3.86,3.86,0,0,1-3.86-3.86V28.67A17.9,17.9,0,0,1,286,22l8-19.63A4.37,4.37,0,0,1,297.17.29h9.91a3.86,3.86,0,0,1,3.86,3.86V108.37A3.86,3.86,0,0,1,307.08,112.23Z" style="fill:#474747"/><path d="M436.7,1.36V70.93a7,7,0,0,1-.41,2.36C434.58,78,428.09,96,427.7,96l-5.2,13.61a4,4,0,0,1-3.74,2.58h-6.12c-.45,0-.82-.51-.82-1.15l0-40.52c0-1.61,0-3.35.08-5.23v0c0-1.24-1.13-1.7-1.53-.6L396.92,93.91a10.16,10.16,0,0,1-2.85,4.39A6.2,6.2,0,0,1,390,99.79h-2.71a6.15,6.15,0,0,1-4.08-1.49,10.09,10.09,0,0,1-2.86-4.39L366.25,64.79c-.41-1.1-1.59-.64-1.54.61v.26c.08,1.91.12,3.66.12,5.27l-.17,40.15c0,.64-.36,1.15-.81,1.15H340.78a1,1,0,0,1-.82-1.06V4.17c0-2.14,1.34-3.88,3-3.88H355.2c.86,0,1.62,0,2.27.08a4.56,4.56,0,0,1,1.74.46A4,4,0,0,1,360.6,2a9.38,9.38,0,0,1,1.21,2.27l21.7,44.59c.79,1.95,1.83,3.83,2.69,5.9h0a2.19,2.19,0,0,0,4.15,0l.7-1.54c.9-2.14,1.34-2.67,2.16-4.62L414.85,4.29A9.38,9.38,0,0,1,416.06,2,4,4,0,0,1,417.45.83a4.56,4.56,0,0,1,1.74-.46c.65,0,1.41-.08,2.27-.08h14.42A1,1,0,0,1,436.7,1.36Z" style="fill:#444"/><path d="M539.7,108.69a2.59,2.59,0,0,1-2.42,3.54H522.59a9.18,9.18,0,0,1-5.7-1.65,10.37,10.37,0,0,1-3.29-4.21l-6.31-18.63A2.6,2.6,0,0,0,504.82,86H464.08a2.6,2.6,0,0,0-2.47,1.77l-6.31,18.63a9.68,9.68,0,0,1-3.17,4,8.82,8.82,0,0,1-5.66,1.81H431.63a2.6,2.6,0,0,1-2.43-3.54L470.52,2A2.6,2.6,0,0,1,473,.29h23A2.6,2.6,0,0,1,498.39,2Zm-43.59-39.3A2.61,2.61,0,0,0,498.58,66l-9.16-27.06c-.76-1.93-1.58-4.21-2.44-6.84l0-.07a2.61,2.61,0,0,0-5,0l-.06.18q-1.31,4-2.44,6.87L470.4,66a2.61,2.61,0,0,0,2.47,3.44Z" style="fill:#474747"/><path d="M622.74,105.59a3.43,3.43,0,0,1-2.91,5.26h-18q-6.54,0-9.38-4.92L573.85,73.39a7.57,7.57,0,0,0-7.54-4h-3.18a3.44,3.44,0,0,0-3.44,3.44v34.58a3.44,3.44,0,0,1-3.43,3.44h-2.1a8.85,8.85,0,0,1-8.22-5.58l-11-27.6a21.27,21.27,0,0,1-1.51-7.88V3.73A3.43,3.43,0,0,1,536.87.29h33.39a77,77,0,0,1,20.93,2.47,39.62,39.62,0,0,1,14.14,6.86,26.13,26.13,0,0,1,8,10.4,33.89,33.89,0,0,1,2.48,13.05,34.12,34.12,0,0,1-1.48,10.17A30.86,30.86,0,0,1,610,52.08a32.69,32.69,0,0,1-7.1,7.25,36.39,36.39,0,0,1-4.28,2.75,3.48,3.48,0,0,0-.66,5.71h0a22.46,22.46,0,0,1,4,4.59Zm-54-52.78a26.57,26.57,0,0,0,9-1.35,16.17,16.17,0,0,0,6.11-3.72,14.28,14.28,0,0,0,3.45-5.57,21.23,21.23,0,0,0,1.08-6.87q0-7.36-4.8-11.52t-14.86-4.14h-7a3.44,3.44,0,0,0-3.44,3.44V49.37a3.44,3.44,0,0,0,3.44,3.44Z" style="fill:#474747"/><path d="M642.61,42.84a3.07,3.07,0,0,0,3.07,3.06h1.13q5.82,0,8.39-3.64L680.68,5.47a12.54,12.54,0,0,1,4.85-4.06A16.6,16.6,0,0,1,692,.29h1.44c1.31.1,4-.26,4.1.76.29,3.17,0,10,.09,17.34A8.65,8.65,0,0,1,696,23.58l-15.73,22a25,25,0,0,1-5.52,5.51,1.3,1.3,0,0,0,.16,2.24,19.22,19.22,0,0,1,3.06,2,22.56,22.56,0,0,1,4.45,5l29.93,46a3.86,3.86,0,0,1-3.23,6h-15a20.13,20.13,0,0,1-3.84-.31,9.83,9.83,0,0,1-2.76-.94,7.71,7.71,0,0,1-2-1.52,15.37,15.37,0,0,1-1.63-2.07L658.3,67.84a7.77,7.77,0,0,0-3.53-3.08,15.27,15.27,0,0,0-5.79-.9h-2.51a3.86,3.86,0,0,0-3.86,3.86v40.65a3.86,3.86,0,0,1-3.86,3.86h-5a5,5,0,0,1-4.28-2.44L618,90.48a11.67,11.67,0,0,1-1.64-6V51.41a2.57,2.57,0,0,1,.28-1.15h0a36.16,36.16,0,0,0-.28-33.46h0V4.19a3.92,3.92,0,0,1,3.92-3.9h18.42a3.91,3.91,0,0,1,3.92,3.9Z" style="fill:#474747"/><path d="M728.29,21.92v23.6a.38.38,0,0,0,.38.38h34.62a.45.45,0,0,1,.45.44V62.52A2.73,2.73,0,0,1,761,65.24h-30.4a2.32,2.32,0,0,0-2.32,2.32V89.22a2.28,2.28,0,0,0,2.28,2.28H773.9v16.8a3.93,3.93,0,0,1-3.93,3.93H725.22A5.13,5.13,0,0,1,721,110L703.66,84A9.62,9.62,0,0,1,702,78.66V4.23a4,4,0,0,1,4-3.94h64.07a3.85,3.85,0,0,1,3.85,3.85V15.8a3.84,3.84,0,0,1-3.85,3.84H730.57A2.28,2.28,0,0,0,728.29,21.92Z" style="fill:#474747"/><path d="M843.92,21h-24.7a3.86,3.86,0,0,0-3.86,3.87v68A19.33,19.33,0,0,1,796,112.23H793a3.86,3.86,0,0,1-3.86-3.86V24.85A3.84,3.84,0,0,0,785.27,21h-2a3.88,3.88,0,0,1-3.88-3.87v-13A3.88,3.88,0,0,1,783.3.29h54.47a9.37,9.37,0,0,1,9.37,9.37V17.8A3.22,3.22,0,0,1,843.92,21Z" style="fill:#474747"/><path d="M147.75,8.5a5.84,5.84,0,0,1,5.34,3.3l41.15,82.31a7.66,7.66,0,0,1-.32,7.68,7.82,7.82,0,0,1-6.66,3.82,8.64,8.64,0,0,1-1.66-.16l-8.92-1.94c-14.16-3.09-21.27-4.64-28.94-4.64s-14.6,1.52-28.5,4.55l-9.34,2a8.54,8.54,0,0,1-1.65.16,7.84,7.84,0,0,1-6.67-3.81,7.69,7.69,0,0,1-.32-7.69L142.41,11.8a5.84,5.84,0,0,1,5.34-3.3m0-8.5a14.3,14.3,0,0,0-12.94,8L93.66,90.3a16.39,16.39,0,0,0,18,23.47c19.9-4.26,28-6.4,36.11-6.4s16.23,2.13,36.13,6.4a16.68,16.68,0,0,0,3.39.35A16.47,16.47,0,0,0,201.85,90.3L160.7,8a14.32,14.32,0,0,0-12.95-8Z" style="fill:#444"/><path d="M22.76,157.54h14v16.64a20.76,20.76,0,0,1-6.45,3.22,25.28,25.28,0,0,1-7.16,1,24.59,24.59,0,0,1-8.86-1.53,20.4,20.4,0,0,1-6.83-4.22,18.55,18.55,0,0,1-4.38-6.38,20.58,20.58,0,0,1-1.54-8A21.75,21.75,0,0,1,3,150.14a18.28,18.28,0,0,1,4.18-6.37,19.13,19.13,0,0,1,6.57-4.17,23.8,23.8,0,0,1,8.62-1.48,25.26,25.26,0,0,1,4.63.4,22.75,22.75,0,0,1,4,1.11,18.63,18.63,0,0,1,3.34,1.68,17.65,17.65,0,0,1,2.7,2.11l-2.65,4a2.51,2.51,0,0,1-1.61,1.16,2.8,2.8,0,0,1-2.12-.48c-.72-.44-1.4-.81-2-1.13a13.17,13.17,0,0,0-2-.77,12.51,12.51,0,0,0-2.11-.43,20.7,20.7,0,0,0-2.49-.14,11.4,11.4,0,0,0-4.62.91,10,10,0,0,0-3.5,2.56,11.61,11.61,0,0,0-2.24,4,16.06,16.06,0,0,0-.78,5.16,16.75,16.75,0,0,0,.86,5.57,11.68,11.68,0,0,0,2.45,4.11A10.55,10.55,0,0,0,18,170.49a13.2,13.2,0,0,0,4.88.88,12.5,12.5,0,0,0,3-.33,15.64,15.64,0,0,0,2.61-.86v-6H24.6a1.9,1.9,0,0,1-1.35-.46,1.53,1.53,0,0,1-.49-1.17Z" style="fill:#294772"/><path d="M52.11,145.58v9.2H64.5v6.77H52.11v9.38H68.29v7H42.91V138.55H68.29v7Z" style="fill:#294772"/><path d="M102.24,145.8H91.15V178H82V145.8H70.92v-7.25h31.32Z" style="fill:#294772"/><path d="M156.41,158.25a21,21,0,0,1-1.48,7.95,18.78,18.78,0,0,1-10.6,10.66,23.57,23.57,0,0,1-16.76,0,18.83,18.83,0,0,1-10.65-10.66,22.26,22.26,0,0,1,0-15.91,18.78,18.78,0,0,1,4.17-6.38,19.11,19.11,0,0,1,6.48-4.25,23.5,23.5,0,0,1,16.76,0,19.3,19.3,0,0,1,6.45,4.26,19,19,0,0,1,4.15,6.39A21,21,0,0,1,156.41,158.25Zm-9.36,0a17.23,17.23,0,0,0-.76-5.27,11.14,11.14,0,0,0-2.18-4,9.38,9.38,0,0,0-3.47-2.49,12,12,0,0,0-4.69-.87,12.11,12.11,0,0,0-4.72.87,9.45,9.45,0,0,0-3.49,2.49,11.13,11.13,0,0,0-2.17,4,18.69,18.69,0,0,0,0,10.55,11.09,11.09,0,0,0,2.17,4,9.18,9.18,0,0,0,3.49,2.47,12.3,12.3,0,0,0,4.72.86,12.14,12.14,0,0,0,4.69-.86,9.11,9.11,0,0,0,3.47-2.47,11.1,11.1,0,0,0,2.18-4A17.21,17.21,0,0,0,147.05,158.25Z" style="fill:#294772"/><path d="M178.24,170.75a8.54,8.54,0,0,0,3.29-.61,6.75,6.75,0,0,0,2.45-1.75,8,8,0,0,0,1.53-2.77,12.16,12.16,0,0,0,.52-3.72V138.55h9.15V161.9a18.12,18.12,0,0,1-1.18,6.65,15,15,0,0,1-3.37,5.23,15.18,15.18,0,0,1-5.33,3.4,21.12,21.12,0,0,1-14.15,0,15.18,15.18,0,0,1-5.33-3.4,14.81,14.81,0,0,1-3.35-5.23,18.32,18.32,0,0,1-1.16-6.65V138.55h9.14v23.32a12.15,12.15,0,0,0,.53,3.72,7.84,7.84,0,0,0,1.53,2.79,6.65,6.65,0,0,0,2.44,1.76A8.57,8.57,0,0,0,178.24,170.75Z" style="fill:#294772"/><path d="M230.65,145.8h-11.1V178h-9.14V145.8H199.32v-7.25h31.33Z" style="fill:#294772"/><path d="M271,158.25a20.7,20.7,0,0,1-1.47,7.88A18.34,18.34,0,0,1,259,176.49a22.71,22.71,0,0,1-8.37,1.48H235.27V138.55h15.32A22.71,22.71,0,0,1,259,140a19,19,0,0,1,6.45,4.11,18.36,18.36,0,0,1,4.16,6.24A20.6,20.6,0,0,1,271,158.25Zm-9.36,0a17,17,0,0,0-.76-5.28,11.13,11.13,0,0,0-2.18-4,9.45,9.45,0,0,0-3.47-2.52,11.91,11.91,0,0,0-4.68-.88h-6.12v25.35h6.12a11.91,11.91,0,0,0,4.68-.87,9.45,9.45,0,0,0,3.47-2.52,11.13,11.13,0,0,0,2.18-4A17.13,17.13,0,0,0,261.68,158.25Z" style="fill:#294772"/><path d="M315.14,158.25a21,21,0,0,1-1.48,7.95,18.78,18.78,0,0,1-10.6,10.66,23.57,23.57,0,0,1-16.76,0,18.83,18.83,0,0,1-10.65-10.66,22.26,22.26,0,0,1,0-15.91,18.78,18.78,0,0,1,4.17-6.38,19.11,19.11,0,0,1,6.48-4.25,23.5,23.5,0,0,1,16.76,0,19.4,19.4,0,0,1,6.45,4.26,19,19,0,0,1,4.15,6.39A21,21,0,0,1,315.14,158.25Zm-9.36,0A17.23,17.23,0,0,0,305,153a11,11,0,0,0-2.18-4,9.46,9.46,0,0,0-3.47-2.49,13.16,13.16,0,0,0-9.41,0,9.45,9.45,0,0,0-3.49,2.49,11.13,11.13,0,0,0-2.17,4,18.69,18.69,0,0,0,0,10.55,11.09,11.09,0,0,0,2.17,4A9.18,9.18,0,0,0,290,170a13.3,13.3,0,0,0,9.41,0,9.19,9.19,0,0,0,3.47-2.47,11,11,0,0,0,2.18-4A17.21,17.21,0,0,0,305.78,158.25Z" style="fill:#294772"/><path d="M359.21,158.25a21.21,21.21,0,0,1-1.47,7.95,19.24,19.24,0,0,1-4.16,6.4,19,19,0,0,1-6.45,4.26,23.57,23.57,0,0,1-16.76,0,18.83,18.83,0,0,1-10.65-10.66,22.26,22.26,0,0,1,0-15.91,18.81,18.81,0,0,1,10.65-10.63,23.5,23.5,0,0,1,16.76,0,18.86,18.86,0,0,1,10.61,10.65A21.14,21.14,0,0,1,359.21,158.25Zm-9.36,0a16.93,16.93,0,0,0-.76-5.27,11.13,11.13,0,0,0-2.17-4,9.5,9.5,0,0,0-3.48-2.49,11.91,11.91,0,0,0-4.68-.87,12.08,12.08,0,0,0-4.72.87,9.37,9.37,0,0,0-3.49,2.49,11,11,0,0,0-2.18,4,18.69,18.69,0,0,0,0,10.55,11,11,0,0,0,2.18,4A9.11,9.11,0,0,0,334,170a12.26,12.26,0,0,0,4.72.86,12.09,12.09,0,0,0,4.68-.86,9.22,9.22,0,0,0,3.48-2.47,11.09,11.09,0,0,0,2.17-4A16.91,16.91,0,0,0,349.85,158.25Z" style="fill:#294772"/><path d="M396.85,178h-8.28a3.5,3.5,0,0,1-3.3-1.73l-6.55-11.45a3.31,3.31,0,0,0-1-1.07,3.27,3.27,0,0,0-1.62-.33h-2.33V178H364.6V138.55h12.82a26.15,26.15,0,0,1,7.29.88,13.51,13.51,0,0,1,4.92,2.45,9.21,9.21,0,0,1,2.78,3.7,13.08,13.08,0,0,1,.35,8.28,10.93,10.93,0,0,1-1.52,3.15,11.41,11.41,0,0,1-2.47,2.59,13.08,13.08,0,0,1-3.4,1.86,8.21,8.21,0,0,1,1.68,1.15,8.38,8.38,0,0,1,1.41,1.64Zm-19.43-20.89a9.6,9.6,0,0,0,3.18-.47,5.83,5.83,0,0,0,2.15-1.31,5.11,5.11,0,0,0,1.22-2,7.53,7.53,0,0,0,.38-2.42,5.05,5.05,0,0,0-1.7-4c-1.12-1-2.87-1.47-5.23-1.47h-3.68v11.69Z" style="fill:#294772"/><path d="M422,146.56a3.45,3.45,0,0,1-.85,1,1.89,1.89,0,0,1-1.15.33,2.73,2.73,0,0,1-1.34-.4l-1.62-.88a14.32,14.32,0,0,0-2.07-.87,8.06,8.06,0,0,0-2.65-.4,5.7,5.7,0,0,0-3.83,1.1,3.73,3.73,0,0,0-1.26,3,2.72,2.72,0,0,0,.76,2,6.43,6.43,0,0,0,2,1.35,20.07,20.07,0,0,0,2.81,1c1.05.32,2.13.67,3.23,1.06a27.61,27.61,0,0,1,3.23,1.36,10.92,10.92,0,0,1,2.82,2,9.5,9.5,0,0,1,2,3,10.58,10.58,0,0,1,.76,4.2,13.75,13.75,0,0,1-.95,5.12,12,12,0,0,1-2.75,4.15,12.83,12.83,0,0,1-4.44,2.79,16.68,16.68,0,0,1-6,1,18.79,18.79,0,0,1-3.75-.38A22,22,0,0,1,403.2,177a21.21,21.21,0,0,1-3.35-1.63,14.5,14.5,0,0,1-2.74-2.11l2.71-4.28a2.87,2.87,0,0,1,.85-.77,2.21,2.21,0,0,1,1.15-.31,3.11,3.11,0,0,1,1.64.51c.55.35,1.17.73,1.87,1.14a15.22,15.22,0,0,0,2.39,1.14,9,9,0,0,0,3.19.51,6.08,6.08,0,0,0,3.87-1.09,4.19,4.19,0,0,0,1.38-3.48,3.28,3.28,0,0,0-.76-2.25,5.88,5.88,0,0,0-2-1.43,18.7,18.7,0,0,0-2.81-1q-1.56-.43-3.21-1a23.06,23.06,0,0,1-3.22-1.3,10,10,0,0,1-2.8-2,9.23,9.23,0,0,1-2-3.14,12.34,12.34,0,0,1-.76-4.64,11.11,11.11,0,0,1,.89-4.33,11.24,11.24,0,0,1,2.63-3.76,12.93,12.93,0,0,1,4.24-2.64,15.89,15.89,0,0,1,5.77-1,21.65,21.65,0,0,1,3.53.28,18.76,18.76,0,0,1,3.26.84,18.06,18.06,0,0,1,2.88,1.32,13.51,13.51,0,0,1,2.39,1.75Z" style="fill:#294772"/><path d="M428,173.72a4.53,4.53,0,0,1,.36-1.81,4.61,4.61,0,0,1,2.51-2.45,4.89,4.89,0,0,1,5.27,1,4.42,4.42,0,0,1,1.38,3.27,4.67,4.67,0,0,1-.36,1.83,4.51,4.51,0,0,1-1,1.47,4.8,4.8,0,0,1-1.51,1,5.22,5.22,0,0,1-3.76,0,4.69,4.69,0,0,1-1.51-1,4.61,4.61,0,0,1-1-1.47A4.67,4.67,0,0,1,428,173.72Z" style="fill:#294772"/><path d="M474.52,157.54h14v16.64a20.76,20.76,0,0,1-6.45,3.22,25.28,25.28,0,0,1-7.16,1,24.59,24.59,0,0,1-8.86-1.53,20.3,20.3,0,0,1-6.83-4.22,18.55,18.55,0,0,1-4.38-6.38,20.58,20.58,0,0,1-1.54-8,21.75,21.75,0,0,1,1.46-8.11,18.15,18.15,0,0,1,4.18-6.37,19.13,19.13,0,0,1,6.57-4.17,23.8,23.8,0,0,1,8.62-1.48,25.26,25.26,0,0,1,4.63.4,22.75,22.75,0,0,1,4,1.11,18.63,18.63,0,0,1,3.34,1.68,17.65,17.65,0,0,1,2.7,2.11l-2.65,4a2.51,2.51,0,0,1-1.61,1.16,2.79,2.79,0,0,1-2.12-.48c-.73-.44-1.41-.81-2.05-1.13a13.06,13.06,0,0,0-2-.77,12.51,12.51,0,0,0-2.11-.43,20.7,20.7,0,0,0-2.49-.14,11.4,11.4,0,0,0-4.62.91,10.08,10.08,0,0,0-3.51,2.56,11.59,11.59,0,0,0-2.23,4,16.06,16.06,0,0,0-.78,5.16,16.5,16.5,0,0,0,.86,5.57,11.68,11.68,0,0,0,2.45,4.11,10.55,10.55,0,0,0,3.79,2.56,13.2,13.2,0,0,0,4.88.88,12.5,12.5,0,0,0,3-.33,16.27,16.27,0,0,0,2.61-.86v-6h-3.89a1.94,1.94,0,0,1-1.36-.46,1.56,1.56,0,0,1-.48-1.17Z" style="fill:#294772"/><path d="M503.87,145.58v9.2h12.39v6.77H503.87v9.38h16.18v7H494.67V138.55h25.38v7Z" style="fill:#294772"/><path d="M554,145.8H542.91V178h-9.14V145.8h-11.1v-7.25H554Z" style="fill:#294772"/><path d="M578.68,145.58v9.2h12.39v6.77H578.68v9.38h16.18v7H569.48V138.55h25.38v7Z" style="fill:#294772"/><path d="M640.61,185.36h-7.52a9.59,9.59,0,0,1-2.91-.42,5.92,5.92,0,0,1-2.4-1.56l-4.89-5.49a23,23,0,0,1-5,.51,22,22,0,0,1-8.38-1.54A18.83,18.83,0,0,1,598.9,166.2a22.26,22.26,0,0,1,0-15.91,18.78,18.78,0,0,1,4.17-6.38,19.11,19.11,0,0,1,6.48-4.25,23.5,23.5,0,0,1,16.76,0,19.51,19.51,0,0,1,6.45,4.26,19,19,0,0,1,4.15,6.39,21,21,0,0,1,1.48,7.93,22.25,22.25,0,0,1-.53,4.88,21.14,21.14,0,0,1-1.51,4.4,19,19,0,0,1-2.44,3.81,18.3,18.3,0,0,1-3.29,3.11Zm-33.82-27.11a16.91,16.91,0,0,0,.76,5.28,11.09,11.09,0,0,0,2.17,4,9.18,9.18,0,0,0,3.49,2.47,12.3,12.3,0,0,0,4.72.86,12.09,12.09,0,0,0,4.68-.86,9.15,9.15,0,0,0,3.48-2.47,11.1,11.1,0,0,0,2.18-4,18.69,18.69,0,0,0,0-10.55,11.14,11.14,0,0,0-2.18-4,9.41,9.41,0,0,0-3.48-2.49,11.91,11.91,0,0,0-4.68-.87,12.11,12.11,0,0,0-4.72.87,9.45,9.45,0,0,0-3.49,2.49,11.13,11.13,0,0,0-2.17,4A16.93,16.93,0,0,0,606.79,158.25Z" style="fill:#294772"/><path d="M660.22,170.75a8.54,8.54,0,0,0,3.29-.61,6.75,6.75,0,0,0,2.45-1.75,7.8,7.8,0,0,0,1.52-2.77,11.85,11.85,0,0,0,.53-3.72V138.55h9.15V161.9a18.12,18.12,0,0,1-1.18,6.65,15,15,0,0,1-3.37,5.23,15.18,15.18,0,0,1-5.33,3.4,21.12,21.12,0,0,1-14.15,0,15.18,15.18,0,0,1-5.33-3.4,14.81,14.81,0,0,1-3.35-5.23,18.33,18.33,0,0,1-1.17-6.65V138.55h9.15v23.32a11.85,11.85,0,0,0,.53,3.72,8,8,0,0,0,1.52,2.79,6.77,6.77,0,0,0,2.45,1.76A8.54,8.54,0,0,0,660.22,170.75Z" style="fill:#294772"/><path d="M693.5,178h-9.2V138.55h9.2Z" style="fill:#294772"/><path d="M715,138.55a22.88,22.88,0,0,1,7.16,1,13.68,13.68,0,0,1,4.92,2.72,10.63,10.63,0,0,1,2.86,4.08,14,14,0,0,1,.92,5.09,15,15,0,0,1-.95,5.41,10.92,10.92,0,0,1-2.89,4.22,13.76,13.76,0,0,1-4.94,2.75,22.93,22.93,0,0,1-7.08,1h-4.76V178h-9.14V138.55Zm0,19.34c2.38,0,4.1-.56,5.14-1.7a6.75,6.75,0,0,0,1.57-4.76,7.13,7.13,0,0,0-.4-2.46,5,5,0,0,0-1.23-1.91,5.6,5.6,0,0,0-2.09-1.23,9.15,9.15,0,0,0-3-.44h-4.76v12.5Z" style="fill:#294772"/><path d="M749.45,138.55a22.86,22.86,0,0,1,7.15,1,13.65,13.65,0,0,1,4.93,2.72,10.5,10.5,0,0,1,2.85,4.08,14,14,0,0,1,.92,5.09,15,15,0,0,1-.95,5.41,10.81,10.81,0,0,1-2.89,4.22,13.76,13.76,0,0,1-4.94,2.75,22.86,22.86,0,0,1-7.07,1h-4.77V178h-9.14V138.55Zm0,19.34c2.38,0,4.09-.56,5.14-1.7a6.8,6.8,0,0,0,1.57-4.76,7.13,7.13,0,0,0-.41-2.46,5,5,0,0,0-1.23-1.91,5.6,5.6,0,0,0-2.09-1.23,9.09,9.09,0,0,0-3-.44h-4.77v12.5Z" style="fill:#294772"/><path d="M779.15,145.58v9.2h12.39v6.77H779.15v9.38h16.18v7H770V138.55h25.38v7Z" style="fill:#294772"/><path d="M836.73,158.25a20.7,20.7,0,0,1-1.48,7.88,18.48,18.48,0,0,1-4.15,6.25,18.8,18.8,0,0,1-6.46,4.11,22.63,22.63,0,0,1-8.37,1.48H801V138.55h15.31a22.63,22.63,0,0,1,8.37,1.49,19.1,19.1,0,0,1,6.46,4.11,18.34,18.34,0,0,1,4.15,6.24A20.6,20.6,0,0,1,836.73,158.25Zm-9.37,0a17.36,17.36,0,0,0-.75-5.28,11.28,11.28,0,0,0-2.18-4,9.57,9.57,0,0,0-3.48-2.52,11.91,11.91,0,0,0-4.68-.88h-6.11v25.35h6.11a11.91,11.91,0,0,0,4.68-.87,9.57,9.57,0,0,0,3.48-2.52,11.28,11.28,0,0,0,2.18-4A17.44,17.44,0,0,0,827.36,158.25Z" style="fill:#294772"/><path d="M839.16,173.72a4.61,4.61,0,0,1,2.87-4.26,4.89,4.89,0,0,1,5.27,1,4.42,4.42,0,0,1,1,1.46,4.53,4.53,0,0,1,.36,1.81,4.67,4.67,0,0,1-.36,1.83,4.36,4.36,0,0,1-1,1.47,4.8,4.8,0,0,1-1.51,1,5.22,5.22,0,0,1-3.76,0,4.54,4.54,0,0,1-1.5-1,4.48,4.48,0,0,1-1-1.47A4.67,4.67,0,0,1,839.16,173.72Z" style="fill:#294772"/></svg>